<svg width="1440" height="807" viewBox="0 0 1440 807" fill="none" xmlns="http://www.w3.org/2000/svg">
<rect width="1440" height="807" fill="#070520" fill-opacity="0.01"/>
<path d="M1280 807C972.93 807 724 558.07 724 251C724 160.686 745.533 75.4013 783.746 0H1440V783.634C1389.33 798.833 1335.62 807 1280 807Z" fill="#755ECD"/>
<path fill-rule="evenodd" clip-rule="evenodd" d="M918.167 313.765L692.343 539.571C621.37 629.894 763.317 746.023 834.289 675.055L1053.66 455.7C1079.47 475.055 1111.73 449.249 1079.47 416.991L950.428 287.959C924.619 262.152 892.359 281.507 918.167 313.765ZM769.769 629.894C784.022 629.894 795.577 618.34 795.577 604.087C795.577 589.835 784.022 578.281 769.769 578.281C755.515 578.281 743.96 589.835 743.96 604.087C743.96 618.34 755.515 629.894 769.769 629.894ZM873.002 539.571C873.002 550.26 864.336 558.926 853.646 558.926C842.956 558.926 834.29 550.26 834.29 539.571C834.29 528.882 842.956 520.216 853.646 520.216C864.336 520.216 873.002 528.882 873.002 539.571ZM963.332 481.507L1021.4 416.991L950.428 346.023L911.715 384.733C931.5 406.5 905 436.5 879.454 416.991L814.933 481.507C814.933 481.507 817 485.5 827.838 481.507C838.675 477.513 911 472.5 937.523 481.507C951.347 486.201 958.5 486 963.332 481.507Z" fill="white"/>
<circle cx="1040.5" cy="184.5" r="38.5" fill="#070823"/>
<circle cx="1133.5" cy="306.5" r="55.5" fill="white"/>
</svg>
