<svg width="360" height="710" viewBox="0 0 360 710" fill="none" xmlns="http://www.w3.org/2000/svg">
<rect width="360" height="710" fill="#090C28" fill-opacity="0.01"/>
<path d="M340 656C236.17 656 152 571.83 152 468C152 364.17 236.17 280 340 280C346.756 280 353.428 280.356 360 281.051V654.949C353.428 655.644 346.756 656 340 656Z" fill="#755ECD"/>
<path fill-rule="evenodd" clip-rule="evenodd" d="M202.909 430.133L100.75 532.577C68.6436 573.555 132.857 626.241 164.964 594.044L264.204 494.527C275.879 503.308 290.473 491.6 275.879 476.965L217.503 418.425C205.828 406.717 191.234 415.498 202.909 430.133ZM135.776 573.555C142.224 573.555 147.452 568.313 147.452 561.847C147.452 555.381 142.224 550.139 135.776 550.139C129.328 550.139 124.101 555.381 124.101 561.847C124.101 568.313 129.328 573.555 135.776 573.555ZM182.477 532.577C182.477 537.427 178.557 541.358 173.721 541.358C168.885 541.358 164.964 537.427 164.964 532.577C164.964 527.728 168.885 523.796 173.721 523.796C178.557 523.796 182.477 527.728 182.477 532.577ZM223.341 506.235L249.61 476.965L217.503 444.768L199.99 462.33C208.94 472.205 196.952 485.816 185.396 476.965L156.208 506.235C156.208 506.235 157.143 508.046 162.046 506.235C166.948 504.423 199.667 502.148 211.665 506.235C217.919 508.364 221.155 508.273 223.341 506.235Z" fill="white"/>
<circle cx="248" cy="356" r="18" fill="#070823"/>
<circle cx="292" cy="413" r="26" fill="white"/>
</svg>
